<svg xmlns="http://www.w3.org/2000/svg" fill="none" viewBox="0 0 24 24" id="Planless-Icon--Streamline-Svg-Logos" height="24" width="24">
  <desc>
    Planless Icon Streamline Icon: https://streamlinehq.com
  </desc>
  <path fill="#ff6254" d="m11.89495 13.792275 7.30345 3.050375L2.805 23.639075c-0.6282325 0.25595 -0.8959125 0.07125 -0.9180025 -0.57755l-0.0015 -0.09135V18.2608c0 -0.267575 0.151985 -0.513025 0.3769975 -0.635875l0.0696175 -0.033075L11.89495 13.792275ZM22.1145 8.8688v6.2345L14.7322 12.213525c-0.10505 -0.02675 -0.157575 -0.1338 -0.157575 -0.2141 0 -0.06685 0.036475 -0.15235 0.109425 -0.19445L22.1145 8.8688ZM1.8854975 1.0298675c0 -0.6910475 0.2403675 -0.916946 0.8360525 -0.7011125l0.08345 0.0321675L19.1984 7.18415 11.89495 10.20775 2.3321125 6.4349c-0.23883 -0.0973 -0.4125275 -0.327275 -0.442135 -0.609525l-0.00448 -0.08615V1.0298675Z" stroke-width="0.25"></path>
</svg>